<svg viewBox="0 0 124 48" xmlns="http://www.w3.org/2000/svg">
    <path d="M 22.211 16.029 C 22.691 16.029 23.148 16.076 23.581 16.169 C 24.014 16.269 24.374 16.389 24.661 16.529 L 24.661 23.409 C 23.674 23.002 22.618 22.799 21.491 22.799 C 19.978 22.799 18.814 23.196 18.001 23.989 C 17.181 24.776 16.771 25.949 16.771 27.509 L 16.771 30.649 L 20.011 30.649 L 20.011 36.549 L 6.911 36.549 L 6.911 30.649 L 8.491 30.649 L 8.491 22.439 L 6.911 22.439 L 6.911 16.529 L 16.771 16.529 L 16.771 19.159 C 17.444 18.152 18.214 17.379 19.081 16.839 C 19.941 16.299 20.984 16.029 22.211 16.029 ZM 36.541 37.049 C 33.128 37.049 30.461 36.156 28.541 34.369 C 26.621 32.582 25.661 29.972 25.661 26.539 C 25.661 23.106 26.621 20.496 28.541 18.709 C 30.461 16.922 33.128 16.029 36.541 16.029 C 39.921 16.029 42.361 16.912 43.861 18.679 C 45.361 20.439 46.111 22.629 46.111 25.249 L 46.111 27.839 L 34.451 27.839 L 34.451 28.049 C 34.451 28.942 34.715 29.599 35.241 30.019 C 35.768 30.439 36.645 30.649 37.871 30.649 C 39.331 30.649 40.721 30.539 42.041 30.319 C 43.361 30.106 44.515 29.829 45.501 29.489 L 45.501 35.249 C 44.661 35.709 43.431 36.126 41.811 36.499 C 40.191 36.866 38.435 37.049 36.541 37.049 Z M 34.451 23.879 L 38.621 23.879 L 38.621 23.449 C 38.621 22.629 38.448 22.039 38.101 21.679 C 37.755 21.319 37.235 21.139 36.541 21.139 C 35.841 21.139 35.318 21.326 34.971 21.699 C 34.625 22.072 34.451 22.656 34.451 23.449 L 34.451 23.879 ZM 54.284 37.049 C 51.837 37.049 49.994 36.139 48.754 34.319 C 47.52 32.492 46.904 29.899 46.904 26.539 C 46.904 23.179 47.52 20.589 48.754 18.769 C 49.994 16.942 51.837 16.029 54.284 16.029 C 55.51 16.029 56.597 16.329 57.544 16.929 C 58.49 17.529 59.264 18.212 59.864 18.979 L 59.864 14.449 L 57.744 14.449 L 57.744 8.539 L 68.144 8.539 L 68.144 30.649 L 69.724 30.649 L 69.724 36.549 L 59.864 36.549 L 59.864 34.099 C 59.264 34.866 58.49 35.549 57.544 36.149 C 56.597 36.749 55.51 37.049 54.284 37.049 Z M 57.774 30.649 C 58.474 30.649 58.997 30.462 59.344 30.089 C 59.69 29.716 59.864 29.132 59.864 28.339 L 59.864 24.739 C 59.864 23.946 59.69 23.366 59.344 22.999 C 58.997 22.626 58.474 22.439 57.774 22.439 C 57.08 22.439 56.56 22.626 56.214 22.999 C 55.86 23.366 55.684 23.946 55.684 24.739 L 55.684 28.339 C 55.684 29.132 55.86 29.716 56.214 30.089 C 56.56 30.462 57.08 30.649 57.774 30.649 ZM 92.98 30.649 L 94.57 30.649 L 94.57 36.549 L 84.7 36.549 L 84.7 33.739 C 82.973 35.946 80.813 37.049 78.22 37.049 C 76.226 37.049 74.733 36.426 73.74 35.179 C 72.746 33.932 72.25 32.216 72.25 30.029 L 72.25 22.439 L 70.66 22.439 L 70.66 16.529 L 80.53 16.529 L 80.53 28.339 C 80.53 29.132 80.703 29.716 81.05 30.089 C 81.396 30.462 81.916 30.649 82.61 30.649 C 83.31 30.649 83.833 30.462 84.18 30.089 C 84.526 29.716 84.7 29.132 84.7 28.339 L 84.7 22.439 L 82.76 22.439 L 82.76 16.529 L 92.98 16.529 L 92.98 30.649 ZM 111.594 26.249 L 116.234 30.649 L 117.384 30.649 L 117.384 36.549 L 106.154 36.549 L 106.154 30.649 L 107.164 30.649 L 105.764 28.519 L 105.404 28.519 L 103.994 30.649 L 105.004 30.649 L 105.004 36.549 L 95.354 36.549 L 95.354 30.649 L 96.864 30.649 L 101.224 26.759 L 96.654 22.439 L 95.504 22.439 L 95.504 16.529 L 106.734 16.529 L 106.734 22.439 L 105.724 22.439 L 107.124 24.529 L 107.484 24.529 L 108.894 22.439 L 107.884 22.439 L 107.884 16.529 L 117.244 16.529 L 117.244 22.439 L 115.734 22.439 L 111.594 26.249 Z" fill="currentColor"></path>
</svg>
